
<svg xmlns="http://www.w3.org/2000/svg" viewBox="0 0 14 17"><path d="M13.992 13.809c-.215.497-.445.945-.693 1.344-.362.583-.659.995-.887 1.237-.355.39-.736.589-1.14.595-.29 0-.638-.085-1.047-.256-.408-.17-.783-.255-1.123-.255-.354 0-.742.085-1.162.255-.421.171-.765.26-1.033.265-.39.01-.782-.19-1.178-.602-.243-.25-.55-.678-.924-1.285-.398-.65-.725-1.407-.981-2.27-.27-.91-.404-1.792-.404-2.647 0-.978.214-1.818.641-2.521.43-.714 1.001-1.063 1.717-1.057.341 0 .784.099 1.33.295.543.197.893.297 1.051.297.115 0..."/></svg>
